# Blender 4.3.2
# www.blender.org
mtllib atm.mtl
o Cube
v 1.500000 0.206196 2.357131
v 1.499999 3.206195 2.357131
v 1.500000 0.206195 4.796194
v -1.500000 0.206196 2.357132
v -1.500000 3.206196 2.357132
v -1.500000 0.206195 4.796195
v 1.484531 6.893917 4.191702
v -1.480185 6.891441 4.192841
v -1.499999 6.848402 4.796195
v -1.147503 5.950113 3.617665
v 1.195460 5.974357 3.697174
v 0.119669 4.521002 3.552981
v 0.123731 3.826502 3.393422
v -0.511725 3.830392 3.393959
v -0.514114 3.939958 3.454030
v -1.107011 3.939764 3.441285
v -1.091337 6.060296 3.672347
v -0.907540 6.196446 3.743454
v -0.559520 6.326128 3.812400
v 0.012370 6.374690 3.852334
v 0.467377 6.337432 3.844479
v 0.994760 6.139961 3.795088
v -1.239778 5.476808 3.496301
v -1.110534 3.781211 3.173845
v -1.174056 3.546460 2.527575
v -1.200803 3.894160 2.701887
v 1.136259 4.519781 3.553746
v 1.235579 5.717523 3.621650
v 1.307794 4.891067 3.205507
v 1.271686 4.116765 2.815626
v 1.179412 3.575155 2.542912
v 1.103186 3.755279 3.181984
v 0.126052 3.743304 3.170130
v -1.244265 4.385621 2.949734
v -0.508746 3.778008 3.172879
v -0.020965 3.516662 2.513026
v -0.833699 5.953360 3.628314
v 0.851648 5.970799 3.685507
v -0.825710 4.632064 3.560743
v 0.823191 4.644100 3.577983
v -0.733436 5.747589 3.916073
v 0.763013 5.759191 3.956619
v 0.784800 4.714890 3.850345
v -0.755213 4.716138 3.837118
v 1.501533 6.873385 4.203656
v 1.506890 6.848402 4.796194
v 1.484531 6.893917 4.191702
v -1.492734 6.873385 4.203657
v -1.480188 8.341508 4.152713
v -1.500002 8.344410 4.756067
v 1.484529 8.343985 4.151574
v 1.506887 8.344410 4.756066
v 1.336500 0.006195 2.490060
v 1.336501 0.006195 4.663265
v -1.336501 0.006196 2.490061
v -1.336500 0.006195 4.663266
vn 0.6697 -0.3414 -0.6595
vn 0.6583 0.1738 -0.7324
vn 0.6697 -0.3415 0.6595
vn -0.6699 -0.3412 -0.6595
vn -0.6588 0.1735 -0.7321
vn -0.6699 -0.3412 0.6594
vn -0.0000 -0.0000 1.0000
vn -0.4259 0.1276 -0.8957
vn -0.7075 0.0113 0.7066
vn -0.2057 0.3087 -0.9286
vn 0.1780 0.3342 -0.9255
vn -0.0375 0.2353 -0.9712
vn -0.6141 0.5366 -0.5787
vn 0.6247 0.6252 -0.4679
vn 0.0965 0.4387 -0.8935
vn 0.6153 0.4403 -0.6539
vn -0.0406 0.4708 -0.8813
vn -0.0062 0.4799 -0.8773
vn 0.0122 0.4903 -0.8715
vn 0.0341 0.5059 -0.8619
vn 0.0177 0.4062 -0.9136
vn 0.0290 0.4831 -0.8751
vn 0.1048 0.3350 -0.9364
vn 0.6245 0.6820 -0.3807
vn 0.1240 0.5966 -0.7929
vn 0.5338 0.3992 -0.7455
vn -0.6711 0.2295 -0.7050
vn -0.1482 0.3457 -0.9266
vn -0.0000 0.4497 -0.8932
vn -0.5643 0.3956 -0.7246
vn -0.1383 0.6162 -0.7754
vn -0.5130 0.6399 -0.5721
vn -0.0927 0.8947 -0.4369
vn -0.0187 0.4487 -0.8935
vn 0.0531 0.9362 -0.3474
vn 0.0004 0.4498 -0.8931
vn 0.2135 0.0902 -0.9728
vn -0.1500 0.1453 -0.9779
vn 0.3369 0.2937 -0.8945
vn -0.2267 0.3626 -0.9039
vn 0.4977 -0.3203 -0.8061
vn -0.4922 -0.3006 -0.8170
vn -0.5486 0.5196 -0.6550
vn 0.5134 0.5060 -0.6931
vn 0.8217 0.0554 -0.5673
vn 0.7070 0.0100 0.7071
vn 0.3096 -0.2824 -0.9080
vn -0.9361 0.0617 -0.3463
vn -0.5636 0.5719 -0.5960
vn -0.5868 0.5852 0.5596
vn 0.5607 0.5744 -0.5964
vn 0.5874 0.5845 0.5597
vn 0.3354 -0.8610 -0.3824
vn 0.3354 -0.8610 0.3824
vn -0.3354 -0.8610 -0.3824
vn -0.3354 -0.8610 0.3824
vt 0.081060 0.004358
vt 0.956681 0.065488
vt 0.956681 0.005735
vt 0.060896 0.150050
vt 0.298092 0.337623
vt 0.060896 0.341697
vt 0.049418 0.067512
vt 0.993022 0.527629
vt 0.036037 0.526197
vt 0.152950 0.090257
vt 0.283844 0.336916
vt 0.124456 0.233874
vt 0.026902 0.841431
vt 0.911409 0.829978
vt 0.905726 0.833204
vt 0.097243 0.398393
vt 0.288059 0.093354
vt 0.089932 0.093354
vt 0.290120 0.377243
vt 0.103819 0.097909
vt 0.176853 0.103988
vt 0.344255 0.606607
vt 0.345014 0.593244
vt 0.344129 0.596484
vt 0.731823 0.772242
vt 0.239672 0.772175
vt 0.223817 0.760481
vt 0.101472 0.721502
vt 0.145678 0.587251
vt 0.128789 0.760061
vt 0.857522 0.585350
vt 0.905263 0.606419
vt 0.857843 0.736864
vt 0.539131 0.584217
vt 0.851086 0.649094
vt 0.534908 0.648671
vt 0.547699 0.648671
vt 0.750370 0.658746
vt 0.232567 0.657448
vt 0.321225 0.586785
vt 0.893250 0.563037
vt 0.534741 0.583804
vt 0.259916 0.664612
vt 0.256122 0.745497
vt 0.716195 0.664514
vt 0.711470 0.745496
vt 0.711046 0.745912
vt 0.734189 0.762739
vt 0.863804 0.981235
vt 0.046684 0.993040
vt 0.045131 0.980683
vt 0.892332 0.841037
vt 0.030719 0.994173
vt 0.028856 0.837697
vt 0.020833 0.838646
vt 0.098808 0.264751
vt 0.189312 0.148301
vt 0.098896 0.146280
vt 0.090302 0.328150
vt 0.262884 0.189437
vt 0.092060 0.187754
vt 0.960665 0.004733
vt 0.068117 0.066479
vt 0.069280 0.003116
vt 0.074710 0.062244
vt 0.954845 0.005843
vt 0.954845 0.066082
vt 0.950601 0.009357
vt 0.088573 0.062906
vt 0.951144 0.064540
vt 0.955054 0.008806
vt 0.083739 0.063688
vt 0.951639 0.065038
vt 0.255463 0.745133
vt 0.139541 0.599061
vt 0.321033 0.587364
vt 0.320971 0.599069
vt 0.888367 0.562458
vt 0.499501 0.554870
vt 0.987848 0.528209
vt 0.074029 0.064111
vt 0.297824 0.155125
vt 0.983050 0.070346
vt 0.200883 0.100470
vt 0.101579 0.332186
vt 0.145530 0.765652
vt 0.360234 0.778184
vt 0.479610 0.781104
vt 0.604535 0.778867
vt 0.838305 0.763200
vt 0.275836 0.398393
vt 0.109185 0.357802
vt 0.139925 0.366109
vt 0.101719 0.630587
vt 0.116551 0.589522
vt 0.125936 0.560562
vt 0.146406 0.601862
vt 0.898979 0.669383
vt 0.538369 0.591671
vt 0.338368 0.602827
vt 0.338520 0.592321
vt 0.493205 0.591671
vt 0.146406 0.602780
vt 0.506679 0.589912
vt 0.321078 0.589949
vt 0.144225 0.586218
vt 0.130470 0.561719
vt 0.506145 0.560378
vt 0.855778 0.583903
vt 0.716369 0.664707
vt 0.260794 0.664552
vt 0.864094 0.994313
vt 0.882565 0.994112
vt 0.193661 0.264113
vt 0.254095 0.327404
vt 0.963902 0.067122
vt 0.079984 0.003948
vt 0.089692 0.005528
vt 0.085269 0.006389
vt 0.139518 0.587250
vt 0.031908 0.526424
s 1
usemtl Body
f 4/1/4 1/3/1 53/2/53
f 3/4/3 46/6/46 9/5/9
f 4/7/4 5/9/5 2/8/2
f 9/10/9 5/12/5 4/11/4
f 8/13/8 47/15/47 45/14/45
f 9/16/9 46/18/46 52/17/52
f 1/19/1 45/21/45 46/20/46
f 15/22/15 14/24/14 35/23/35
f 22/25/22 37/27/37 18/26/18
f 23/28/23 10/30/10 24/29/24
f 32/31/32 28/33/28 30/32/30
f 33/34/33 12/36/12 27/35/27
f 12/37/12 39/39/39 40/38/40
f 35/40/35 33/42/33 31/41/31
f 40/38/40 39/39/39 44/43/44
f 42/47/42 38/48/38 40/38/40
f 47/15/47 45/14/45 7/15/7
f 51/49/51 49/51/49 50/50/50
f 47/52/47 8/54/8 49/53/49
f 48/55/48 49/55/49 8/13/8
f 47/15/47 51/15/51 45/14/45
f 48/56/48 9/58/9 50/57/50
f 45/59/45 51/61/51 52/60/52
f 55/62/55 53/64/53 54/63/54
f 1/65/1 3/67/3 54/66/54
f 6/68/6 4/70/4 55/69/55
f 3/71/3 6/73/6 56/72/56
f 41/74/41 37/27/37 38/48/38
f 39/39/39 37/27/37 41/74/41
f 16/75/16 15/77/15 35/76/35
f 31/78/31 2/80/2 36/79/36
f 4/1/4 53/2/53 55/81/55
f 3/4/3 9/5/9 6/82/6
f 4/7/4 2/8/2 1/83/1
f 5/12/5 9/10/9 48/84/48
f 9/10/9 4/11/4 6/85/6
f 8/13/8 10/30/10 48/55/48
f 8/13/8 17/86/17 10/30/10
f 8/13/8 18/26/18 17/86/17
f 8/13/8 19/87/19 18/26/18
f 8/13/8 20/88/20 19/87/19
f 8/13/8 21/89/21 20/88/20
f 22/25/22 45/14/45 11/90/11
f 21/89/21 45/14/45 22/25/22
f 8/13/8 45/14/45 21/89/21
f 9/16/9 52/17/52 50/91/50
f 45/21/45 1/19/1 2/92/2
f 1/19/1 46/20/46 3/93/3
f 38/48/38 22/25/22 11/90/11
f 22/25/22 20/88/20 21/89/21
f 20/88/20 18/26/18 19/87/19
f 18/26/18 10/30/10 17/86/17
f 37/27/37 22/25/22 38/48/38
f 18/26/18 37/27/37 10/30/10
f 22/25/22 18/26/18 20/88/20
f 23/28/23 26/95/26 34/94/34
f 26/95/26 24/29/24 25/96/25
f 24/29/24 10/30/10 16/97/16
f 23/28/23 24/29/24 26/95/26
f 11/90/11 32/31/32 27/35/27
f 32/31/32 30/32/30 31/78/31
f 30/32/30 28/33/28 29/98/29
f 28/33/28 32/31/32 11/90/11
f 12/36/12 33/34/33 13/99/13
f 33/34/33 27/35/27 32/31/32
f 15/100/15 13/102/13 14/101/14
f 15/100/15 12/37/12 13/102/13
f 37/27/37 16/103/16 10/30/10
f 39/39/39 16/103/16 37/27/37
f 16/103/16 12/37/12 15/100/15
f 27/35/27 38/48/38 11/90/11
f 27/35/27 40/38/40 38/48/38
f 39/39/39 12/37/12 16/103/16
f 12/37/12 40/38/40 27/35/27
f 13/104/13 35/40/35 14/105/14
f 35/40/35 25/107/25 24/106/24
f 25/107/25 31/41/31 36/108/36
f 31/41/31 33/42/33 32/109/32
f 33/42/33 35/40/35 13/104/13
f 35/40/35 31/41/31 25/107/25
f 40/38/40 44/43/44 43/110/43
f 42/47/42 40/38/40 43/110/43
f 51/49/51 50/50/50 52/112/52
f 47/52/47 49/53/49 51/113/51
f 48/56/48 50/57/50 49/114/49
f 45/59/45 52/60/52 46/115/46
f 55/62/55 54/63/54 56/116/56
f 1/65/1 54/66/54 53/117/53
f 6/68/6 55/69/55 56/118/56
f 3/71/3 56/72/56 54/119/54
f 41/74/41 38/48/38 42/47/42
f 39/39/39 41/74/41 44/43/44
f 16/75/16 35/76/35 24/120/24
f 25/96/25 34/94/34 26/95/26
f 23/28/23 48/55/48 10/30/10
f 34/94/34 48/55/48 23/28/23
f 45/14/45 28/33/28 11/90/11
f 45/14/45 29/98/29 28/33/28
f 34/94/34 5/121/5 48/55/48
f 25/96/25 5/121/5 34/94/34
f 2/80/2 29/98/29 45/14/45
f 2/80/2 30/32/30 29/98/29
f 25/96/25 2/80/2 5/121/5
f 36/79/36 2/80/2 25/96/25
f 2/80/2 31/78/31 30/32/30
usemtl Monitor
f 41/44/41 42/46/42 43/45/43
f 41/44/41 43/45/43 44/111/44
